<svg width="63" height="44" viewBox="0 0 63 44" fill="none" xmlns="http://www.w3.org/2000/svg">
<path d="M30.1231 0.63739C29.6008 0.891079 28.9045 1.64062 28.624 2.25179L28.3338 2.87448L28.3435 6.50687C28.3435 8.5018 28.4015 12.238 28.4692 14.8095C28.682 23.1351 28.711 27.0097 28.5756 27.2057C28.1307 27.8399 26.3705 26.6061 25.8289 25.2684C25.3357 24.0576 25.2293 22.5355 24.9972 13.3104C24.9391 10.9926 24.8521 8.60558 24.8037 8.00595C24.591 5.44598 24.1364 4.76562 22.6083 4.73103C21.7862 4.7195 21.4961 4.91553 21.1576 5.7112C20.9642 6.14939 20.9255 6.50687 20.8384 8.40955C20.7901 9.60881 20.7417 11.5807 20.7417 12.7915C20.7417 14.8671 20.645 15.9972 20.3549 17.5193C20.1421 18.6609 19.6585 19.1914 18.6817 19.3528C17.995 19.4797 17.289 19.2491 16.525 18.6725C14.523 17.1503 13.904 16.7121 12.7337 16.0203C11.4474 15.2592 10.6253 14.8556 8.99086 14.2214C7.64653 13.7025 6.76642 13.5064 5.60584 13.4949C2.82046 13.4718 0.876488 14.6711 0.131783 16.8851C-0.071318 17.4963 -0.032632 18.9146 0.199484 19.5373C0.596015 20.5752 1.49546 21.3478 2.69473 21.6822C7.73357 23.0775 8.88448 23.6079 15.2483 27.4594C17.7242 28.97 18.614 29.6619 21.0222 31.9797C23.8753 34.7011 26.1964 37.1227 28.0437 39.2675C30.8097 42.4963 31.5641 43.292 31.8639 43.292C31.98 43.292 32.2895 42.8999 32.744 42.1619C34.2044 39.8095 34.6396 39.1638 35.5488 37.9299C37.8602 34.7934 40.3265 32.291 44.4852 28.8662C48.5279 25.5221 51.0522 23.5503 51.7292 23.1697C54.3598 21.7283 55.4237 21.267 59.1182 19.9294C61.7392 18.9838 62.2711 18.6725 62.7643 17.7846C63.1609 17.0696 63.0835 16.4815 62.3291 14.625C61.7392 13.1951 60.9074 12.238 59.6211 11.4884C59.1762 11.2347 57.9383 10.8888 57.474 10.8888C56.4295 10.8888 54.3405 11.6499 51.7485 12.976C49.6498 14.0484 48.3732 14.9363 45.5878 17.2541C44.2338 18.3727 43.6728 18.7186 43.1989 18.7301C42.1254 18.7417 41.99 17.8883 41.8739 10.7735C41.8449 8.70936 41.7772 6.69137 41.7288 6.2993C41.6225 5.36526 41.2936 4.59266 40.8391 4.15446C40.5296 3.86618 40.3942 3.82005 39.9106 3.82005C39.0885 3.83158 38.3438 4.32743 38.015 5.10004C37.7732 5.66507 37.3863 7.57928 37.2993 8.64017C37.2509 9.20521 37.2509 10.3814 37.2993 11.2347C37.338 12.0881 37.425 15.2938 37.4831 18.3381L37.5991 23.8962L37.3863 24.6803C36.8738 26.5945 35.955 27.7246 34.9298 27.7246C34.4559 27.7246 34.2528 27.5286 34.1464 26.9751C34.1077 26.779 34.04 25.0493 33.9917 23.1121C33.9433 21.1748 33.8563 18.0613 33.8079 16.1932C33.7499 14.3251 33.6628 10.7389 33.6048 8.23658C33.5468 5.73426 33.4597 3.37033 33.4114 3.00132C33.2953 2.09034 32.8988 1.35234 32.3088 0.914143C31.9026 0.614326 31.7189 0.568203 31.0999 0.545139C30.6937 0.522076 30.2585 0.568203 30.1231 0.63739Z" fill="#FF4004"/>
</svg>
