<svg width="40" height="40" viewBox="0 0 40 40" fill="none" xmlns="http://www.w3.org/2000/svg">
<path d="M17.4522 36.7677L17.4515 36.767C12.2923 31.6681 8.04793 27.4677 5.08751 23.5202C2.13355 19.5813 0.5 15.9473 0.5 11.9891C0.5 5.48877 5.15523 0.5 11 0.5C14.3121 0.5 17.5126 2.18342 19.6072 4.84339L20 5.34225L20.3928 4.84339C22.4874 2.18342 25.6879 0.5 29 0.5C34.8448 0.5 39.5 5.48877 39.5 11.9891C39.5 15.9473 37.8664 19.5813 34.9125 23.5202C31.9521 27.4677 27.7077 31.6681 22.5485 36.767L22.5478 36.7677L20 39.2956L17.4522 36.7677Z" fill="#FF0000" stroke="black"/>
</svg>
