<svg width="11" height="13" viewBox="0 0 11 13" fill="none" xmlns="http://www.w3.org/2000/svg">
<path d="M10.5205 2.68366C10.7843 2.39817 10.7828 1.93688 10.5172 1.65334L10.0364 1.13994C9.7709 0.856402 9.34183 0.857983 9.07811 1.14347L5.49668 5.02042L1.89061 1.16996C1.62506 0.886425 1.196 0.888006 0.932272 1.1735L0.454748 1.69042C0.191019 1.97591 0.19249 2.4372 0.458034 2.72074L4.0641 6.5712L0.482673 10.4481C0.218944 10.7336 0.220415 11.1949 0.485959 11.4785L0.966768 11.9919C1.23231 12.2754 1.66137 12.2738 1.9251 11.9883L5.50653 8.11138L9.1126 11.9618C9.37815 12.2454 9.80721 12.2438 10.0709 11.9583L10.5485 11.4414C10.8122 11.1559 10.8107 10.6946 10.5452 10.4111L6.9391 6.56061L10.5205 2.68366Z" fill="#808080"/>
</svg>
