<svg width="15" height="18" viewBox="0 0 15 18" fill="none" xmlns="http://www.w3.org/2000/svg">
<path fill-rule="evenodd" clip-rule="evenodd" d="M6.74814 0C6.01879 0 5.31932 0.289731 4.80359 0.805456C4.28787 1.32118 3.99814 2.02065 3.99814 2.75V3.193C3.20314 3.27 2.41414 3.369 1.63314 3.491C1.53439 3.50445 1.43931 3.53745 1.35346 3.58807C1.2676 3.63869 1.1927 3.70591 1.13312 3.78581C1.07355 3.86571 1.03049 3.95668 1.00648 4.0534C0.98246 4.15013 0.977963 4.25067 0.993247 4.34916C1.00853 4.44764 1.04329 4.54209 1.0955 4.62699C1.1477 4.71189 1.2163 4.78553 1.29729 4.84361C1.37828 4.90169 1.47003 4.94305 1.56719 4.96526C1.66435 4.98748 1.76495 4.99011 1.86314 4.973L2.01214 4.951L2.85314 15.469C2.9082 16.1582 3.22084 16.8014 3.7288 17.2704C4.23675 17.7394 4.90275 17.9999 5.59414 18H10.4011C11.0925 18.0002 11.7586 17.74 12.2668 17.2711C12.7749 16.8022 13.0878 16.1592 13.1431 15.47L13.9841 4.95L14.1331 4.973C14.3278 4.99952 14.5252 4.94858 14.6827 4.83111C14.8402 4.71365 14.9454 4.53906 14.9755 4.34488C15.0056 4.15071 14.9584 3.95246 14.8438 3.79278C14.7293 3.6331 14.5567 3.52474 14.3631 3.491C13.5779 3.36878 12.7892 3.26941 11.9981 3.193V2.75C11.9981 2.02065 11.7084 1.32118 11.1927 0.805456C10.677 0.289731 9.97748 0 9.24814 0H6.74814ZM7.99814 3C8.83814 3 9.67114 3.025 10.4981 3.075V2.75C10.4981 2.06 9.93814 1.5 9.24814 1.5H6.74814C6.05814 1.5 5.49814 2.06 5.49814 2.75V3.075C6.32514 3.025 7.15814 3 7.99814 3ZM6.57814 6.72C6.57018 6.52109 6.48353 6.33348 6.33726 6.19846C6.19098 6.06343 5.99705 5.99204 5.79814 6C5.59923 6.00796 5.41162 6.0946 5.2766 6.24088C5.14157 6.38716 5.07018 6.58109 5.07814 6.78L5.37814 14.28C5.38208 14.3785 5.40538 14.4752 5.44671 14.5647C5.48804 14.6542 5.54659 14.7347 5.61902 14.8015C5.69145 14.8684 5.77634 14.9203 5.86884 14.9544C5.96134 14.9884 6.05965 15.0039 6.15814 15C6.25663 14.9961 6.35338 14.9728 6.44287 14.9314C6.53235 14.8901 6.61282 14.8315 6.67968 14.7591C6.74654 14.6867 6.79848 14.6018 6.83253 14.5093C6.86658 14.4168 6.88208 14.3185 6.87814 14.22L6.57814 6.72ZM10.9181 6.78C10.9221 6.68151 10.9066 6.58321 10.8725 6.4907C10.8385 6.3982 10.7865 6.31331 10.7197 6.24088C10.6528 6.16845 10.5724 6.1099 10.4829 6.06857C10.3934 6.02724 10.2966 6.00394 10.1981 6C9.99923 5.99204 9.8053 6.06343 9.65902 6.19846C9.51274 6.33348 9.4261 6.52109 9.41814 6.72L9.11814 14.22C9.1142 14.3185 9.1297 14.4168 9.16375 14.5093C9.1978 14.6018 9.24974 14.6867 9.3166 14.7591C9.38345 14.8315 9.46392 14.8901 9.55341 14.9314C9.6429 14.9728 9.73965 14.9961 9.83814 15C9.93663 15.0039 10.0349 14.9884 10.1274 14.9544C10.2199 14.9203 10.3048 14.8684 10.3773 14.8015C10.4497 14.7347 10.5082 14.6542 10.5496 14.5647C10.5909 14.4752 10.6142 14.3785 10.6181 14.28L10.9181 6.78Z" fill="#F44336"/>
</svg>
