<svg width="18" height="5" viewBox="0 0 18 5" fill="none" xmlns="http://www.w3.org/2000/svg">
<path d="M2 0.685547C3.10457 0.685547 4 1.57621 4 2.67489C4 3.77357 3.10457 4.66423 2 4.66423C0.895431 4.66423 0 3.77357 0 2.67489C0 1.57621 0.895431 0.685547 2 0.685547Z" fill="#8A8A8A"/>
<path d="M9 0.685547C10.1046 0.685547 11 1.57621 11 2.67489C11 3.77357 10.1046 4.66423 9 4.66423C7.89543 4.66423 7 3.77357 7 2.67489C7 1.57621 7.89543 0.685547 9 0.685547Z" fill="#8A8A8A"/>
<path d="M18 2.67489C18 1.57621 17.1046 0.685547 16 0.685547C14.8954 0.685547 14 1.57621 14 2.67489C14 3.77357 14.8954 4.66423 16 4.66423C17.1046 4.66423 18 3.77357 18 2.67489Z" fill="#8A8A8A"/>
</svg>
