<svg width="32" height="32" viewBox="0 0 32 32" fill="none" xmlns="http://www.w3.org/2000/svg">
<g id="checkmark-circle-light">
<g id="Vector">
<path d="M23.7435 12.9414C24.2631 12.4196 24.2613 11.5754 23.7394 11.0558C23.2176 10.5362 22.3734 10.5381 21.8538 11.0599L14.1607 18.7863L9.73485 14.422C9.21051 13.905 8.36631 13.9109 7.84927 14.4353C7.33224 14.9596 7.33815 15.8038 7.86249 16.3208L13.2331 21.6167C13.7557 22.132 14.5963 22.1281 15.1141 21.6081L23.7435 12.9414Z" fill="#06A503"/>
<path fill-rule="evenodd" clip-rule="evenodd" d="M15.9987 1.33398C7.89852 1.33398 1.33203 7.90047 1.33203 16.0007C1.33203 24.1008 7.89852 30.6673 15.9987 30.6673C24.0989 30.6673 30.6654 24.1008 30.6654 16.0007C30.6654 7.90047 24.0989 1.33398 15.9987 1.33398ZM3.9987 16.0007C3.9987 9.37323 9.37128 4.00065 15.9987 4.00065C22.6261 4.00065 27.9987 9.37323 27.9987 16.0007C27.9987 22.6281 22.6261 28.0006 15.9987 28.0006C9.37128 28.0006 3.9987 22.6281 3.9987 16.0007Z" fill="#06A503"/>
</g>
</g>
</svg>
