<svg width="25" height="24" viewBox="0 0 25 24" fill="none" xmlns="http://www.w3.org/2000/svg">
<path fill-rule="evenodd" clip-rule="evenodd" d="M1.5 8.5C1.5 5.21475 3.81333 2 7.5 2C9.20883 2 10.4288 2.48125 11.3649 3.2079C11.8091 3.55266 12.1802 3.94929 12.4974 4.33639C12.811 3.95011 13.1785 3.55357 13.6186 3.20977C14.5531 2.47979 15.775 2 17.5 2C21.2289 2 23.5 5.22013 23.5 8.5C23.5 11.8412 21.8259 14.6994 19.7285 16.9297C17.6279 19.1634 15.023 20.8565 12.9472 21.8944C12.6657 22.0352 12.3343 22.0352 12.0528 21.8944C9.97698 20.8565 7.3721 19.1634 5.27151 16.9297C3.17415 14.6994 1.5 11.8412 1.5 8.5ZM7.5 4C5.18667 4 3.5 6.02986 3.5 8.5C3.5 11.1445 4.82585 13.5363 6.72849 15.5596C8.4833 17.4256 10.6612 18.9027 12.5 19.8754C14.3388 18.9027 16.5167 17.4256 18.2715 15.5596C20.1741 13.5363 21.5 11.1445 21.5 8.5C21.5 6.02448 19.8463 4 17.5 4C16.1874 4 15.407 4.35067 14.8497 4.78592C14.3333 5.18934 13.9736 5.68102 13.545 6.26703C13.4669 6.37374 13.3866 6.48357 13.3026 6.59656C13.1139 6.85039 12.8163 7 12.5 7C12.1837 7 11.8861 6.85039 11.6974 6.59656C11.6256 6.49997 11.5562 6.4055 11.4884 6.31318C11.0465 5.71179 10.6717 5.20159 10.1386 4.78779C9.57355 4.34922 8.79117 4 7.5 4Z" fill="black"/>
</svg>
