<svg width="32" height="33" viewBox="0 0 32 33" fill="none" xmlns="http://www.w3.org/2000/svg">
<path d="M15.5245 3.58156C15.6741 3.1209 16.3259 3.1209 16.4755 3.58156L18.8922 11.0193C19.093 11.6373 19.6689 12.0557 20.3188 12.0557H28.1392C28.6236 12.0557 28.825 12.6755 28.4331 12.9602L22.1062 17.557C21.5805 17.939 21.3605 18.616 21.5613 19.234L23.978 26.6717C24.1277 27.1324 23.6004 27.5154 23.2086 27.2307L16.8817 22.634C16.3559 22.252 15.6441 22.252 15.1183 22.634L8.79144 27.2307C8.39959 27.5154 7.87234 27.1324 8.02202 26.6717L10.4387 19.234C10.6395 18.616 10.4195 17.9389 9.89377 17.557L3.56688 12.9602C3.17503 12.6755 3.37641 12.0557 3.86078 12.0557H11.6812C12.3311 12.0557 12.907 11.6373 13.1078 11.0193L15.5245 3.58156Z" stroke="#FFC700"/>
</svg>
