<svg width="32" height="33" viewBox="0 0 32 33" fill="none" xmlns="http://www.w3.org/2000/svg">
<path d="M15.0489 3.42705C15.3483 2.50574 16.6517 2.50574 16.9511 3.42705L19.3677 10.8647C19.5016 11.2768 19.8855 11.5557 20.3188 11.5557H28.1392C29.1079 11.5557 29.5107 12.7953 28.727 13.3647L22.4001 17.9615C22.0496 18.2161 21.903 18.6675 22.0369 19.0795L24.4535 26.5172C24.7529 27.4385 23.6984 28.2047 22.9147 27.6353L16.5878 23.0385C16.2373 22.7839 15.7627 22.7839 15.4122 23.0385L9.08533 27.6353C8.30162 28.2047 7.24714 27.4385 7.54649 26.5172L9.96315 19.0795C10.097 18.6675 9.95036 18.2161 9.59987 17.9615L3.27299 13.3647C2.48928 12.7953 2.89206 11.5557 3.86078 11.5557H11.6812C12.1145 11.5557 12.4984 11.2768 12.6323 10.8647L15.0489 3.42705Z" fill="#FFC700"/>
</svg>
